<svg width="76" height="35" viewBox="0 0 76 35" fill="none" xmlns="http://www.w3.org/2000/svg">
<path d="M11.2686 20V0.529999H13.2486V20H11.2686ZM17.2086 20V0.529999H18.1986V20H17.2086ZM19.1886 20V0.529999H20.1786V20H19.1886ZM22.1611 20V0.529999H23.1511V20H22.1611ZM25.1311 20V0.529999H29.0911V20H25.1311ZM31.0711 20V0.529999H32.0611V20H31.0711ZM33.0537 20V0.529999H36.0237V20H33.0537ZM37.0137 20V0.529999H38.9937V20H37.0137ZM39.9837 20V0.529999H40.9737V20H39.9837ZM43.9463 20V0.529999H44.9363V20H43.9463ZM46.9163 20V0.529999H50.8763V20H46.9163ZM52.8563 20V0.529999H53.8463V20H52.8563ZM54.8389 20V0.529999H55.8289V20H54.8389ZM57.8089 20V0.529999H61.7689V20H57.8089ZM63.7489 20V0.529999H64.7389V20H63.7489Z" fill="black"/>
<path d="M11.7112 34V23.56H12.2962L19.5862 30.64V23.56H20.1412V34H19.5862V31.42L12.2662 24.28V34H11.7112ZM22.6797 23.56H23.2347V30.01C23.2347 30.67 23.3997 31.28 23.7297 31.84C24.0597 32.4 24.5047 32.845 25.0647 33.175C25.6247 33.505 26.2347 33.67 26.8947 33.67C27.5547 33.67 28.1647 33.505 28.7247 33.175C29.2847 32.845 29.7297 32.4 30.0597 31.84C30.3897 31.28 30.5547 30.67 30.5547 30.01V23.56H31.1097V30.01C31.1097 30.77 30.9197 31.475 30.5397 32.125C30.1597 32.765 29.6447 33.275 28.9947 33.655C28.3547 34.035 27.6547 34.225 26.8947 34.225C26.1347 34.225 25.4297 34.035 24.7797 33.655C24.1397 33.275 23.6297 32.765 23.2497 32.125C22.8697 31.475 22.6797 30.77 22.6797 30.01V23.56ZM33.5432 23.56H42.4532L38.2832 29.725V34H37.7282V29.725L33.5432 23.56ZM44.8868 23.56H45.4418V30.01C45.4418 30.67 45.6068 31.28 45.9368 31.84C46.2668 32.4 46.7118 32.845 47.2718 33.175C47.8318 33.505 48.4418 33.67 49.1018 33.67C49.7618 33.67 50.3718 33.505 50.9318 33.175C51.4918 32.845 51.9368 32.4 52.2668 31.84C52.5968 31.28 52.7618 30.67 52.7618 30.01V23.56H53.3168V30.01C53.3168 30.77 53.1268 31.475 52.7468 32.125C52.3668 32.765 51.8518 33.275 51.2018 33.655C50.5618 34.035 49.8618 34.225 49.1018 34.225C48.3418 34.225 47.6368 34.035 46.9868 33.655C46.3468 33.275 45.8368 32.765 45.4568 32.125C45.0768 31.475 44.8868 30.77 44.8868 30.01V23.56ZM55.9903 23.56H56.5453V30.01C56.5453 30.67 56.7103 31.28 57.0403 31.84C57.3703 32.4 57.8153 32.845 58.3753 33.175C58.9353 33.505 59.5453 33.67 60.2053 33.67C60.8653 33.67 61.4753 33.505 62.0353 33.175C62.5953 32.845 63.0403 32.4 63.3703 31.84C63.7003 31.28 63.8653 30.67 63.8653 30.01V23.56H64.4203V30.01C64.4203 30.77 64.2303 31.475 63.8503 32.125C63.4703 32.765 62.9553 33.275 62.3053 33.655C61.6653 34.035 60.9653 34.225 60.2053 34.225C59.4453 34.225 58.7403 34.035 58.0903 33.655C57.4503 33.275 56.9403 32.765 56.5603 32.125C56.1803 31.475 55.9903 30.77 55.9903 30.01V23.56Z" fill="black"/>
</svg>
