<svg width="54" height="20" viewBox="0 0 54 20" fill="none" xmlns="http://www.w3.org/2000/svg">
<path d="M0.268555 20V0.529999H2.24855V20H0.268555ZM6.20855 20V0.529999H7.19855V20H6.20855ZM8.18856 20V0.529999H9.17856V20H8.18856ZM11.1611 20V0.529999H12.1511V20H11.1611ZM14.1311 20V0.529999H18.0911V20H14.1311ZM20.0711 20V0.529999H21.0611V20H20.0711ZM22.0537 20V0.529999H25.0237V20H22.0537ZM26.0137 20V0.529999H27.9937V20H26.0137ZM28.9837 20V0.529999H29.9737V20H28.9837ZM32.9463 20V0.529999H33.9363V20H32.9463ZM35.9163 20V0.529999H39.8763V20H35.9163ZM41.8563 20V0.529999H42.8463V20H41.8563ZM43.8389 20V0.529999H44.8289V20H43.8389ZM46.8089 20V0.529999H50.7689V20H46.8089ZM52.7489 20V0.529999H53.7389V20H52.7489Z" fill="black"/>
</svg>
